<?xml version="1.0" encoding="UTF-8"?>
<svg xmlns="http://www.w3.org/2000/svg" xmlns:xlink="http://www.w3.org/1999/xlink" width="450pt" height="449.999984pt" viewBox="0 0 450 449.999984" version="1.2">
<defs>
<clipPath id="clip1">
  <path d="M 103 130 L 116 130 L 116 438.859375 L 103 438.859375 Z M 103 130 "/>
</clipPath>
<clipPath id="clip2">
  <path d="M 221 306 L 234 306 L 234 438.859375 L 221 438.859375 Z M 221 306 "/>
</clipPath>
<clipPath id="clip3">
  <path d="M 320 333 L 404.921875 333 L 404.921875 385 L 320 385 Z M 320 333 "/>
</clipPath>
</defs>
<g id="surface1">
<rect x="0" y="0" width="450" height="449.999984" style="fill:rgb(100%,100%,100%);fill-opacity:1;stroke:none;"/>
<rect x="0" y="0" width="450" height="449.999984" style="fill:rgb(100%,100%,100%);fill-opacity:1;stroke:none;"/>
<rect x="0" y="0" width="450" height="449.999984" style="fill:rgb(100%,100%,100%);fill-opacity:1;stroke:none;"/>
<path style=" stroke:none;fill-rule:nonzero;fill:rgb(36.859131%,58.039856%,54.119873%);fill-opacity:1;" d="M 192.328125 272.382812 L 204.335938 272.382812 L 204.335938 405.820312 L 192.328125 405.820312 Z M 192.328125 272.382812 "/>
<path style=" stroke:none;fill-rule:nonzero;fill:rgb(36.859131%,58.039856%,54.119873%);fill-opacity:1;" d="M 132.542969 291.515625 L 144.550781 291.515625 L 144.550781 405.902344 L 132.542969 405.902344 Z M 132.542969 291.515625 "/>
<g clip-path="url(#clip1)" clip-rule="nonzero">
<path style=" stroke:none;fill-rule:nonzero;fill:rgb(35.289001%,19.999695%,7.449341%);fill-opacity:1;" d="M 103.28125 130.730469 L 115.292969 130.730469 L 115.292969 438.925781 L 103.28125 438.925781 Z M 103.28125 130.730469 "/>
</g>
<g clip-path="url(#clip2)" clip-rule="nonzero">
<path style=" stroke:none;fill-rule:nonzero;fill:rgb(35.289001%,19.999695%,7.449341%);fill-opacity:1;" d="M 221.671875 306.164062 L 233.765625 306.164062 L 233.765625 438.925781 L 221.671875 438.925781 Z M 221.671875 306.164062 "/>
</g>
<path style=" stroke:none;fill-rule:nonzero;fill:rgb(35.289001%,19.999695%,7.449341%);fill-opacity:1;" d="M 112.332031 310.820312 L 232.074219 310.820312 L 219.980469 283.132812 L 115.292969 283.132812 Z M 112.332031 310.820312 "/>
<path style=" stroke:none;fill-rule:nonzero;fill:rgb(35.289001%,19.999695%,7.449341%);fill-opacity:1;" d="M 272.074219 405.566406 L 271.144531 426.902344 L 310.296875 428.765625 L 294.988281 398.539062 Z M 272.074219 405.566406 "/>
<path style=" stroke:none;fill-rule:nonzero;fill:rgb(35.289001%,19.999695%,7.449341%);fill-opacity:1;" d="M 336.847656 380.671875 L 345.898438 399.890625 L 381.414062 383.382812 L 353.847656 363.738281 Z M 336.847656 380.671875 "/>
<path style=" stroke:none;fill-rule:nonzero;fill:rgb(82.348633%,47.839355%,30.589294%);fill-opacity:1;" d="M 242.222656 306.757812 L 277.570312 305.148438 C 277.570312 305.148438 274.1875 343.84375 275.792969 365.433594 L 301.839844 367.972656 L 311.820312 325.046875 L 320.953125 342.910156 L 345.8125 333.429688 C 345.8125 333.429688 332.960938 232.925781 305.644531 229.707031 C 278.332031 226.40625 228.4375 273.144531 228.4375 273.144531 Z M 242.222656 306.757812 "/>
<path style=" stroke:none;fill-rule:nonzero;fill:rgb(16.859436%,50.19989%,49.01886%);fill-opacity:1;" d="M 275.710938 363.484375 C 275.710938 363.484375 270.464844 404.972656 272.15625 407.9375 C 273.847656 410.984375 299.726562 422.582031 303.699219 426.648438 C 307.675781 430.710938 336.679688 429.019531 336.679688 429.019531 C 336.679688 429.019531 333.636719 417.84375 323.828125 412.507812 C 313.933594 407.175781 299.304688 379.148438 301.925781 367.972656 Z M 275.710938 363.484375 "/>
<g clip-path="url(#clip3)" clip-rule="nonzero">
<path style=" stroke:none;fill-rule:nonzero;fill:rgb(16.859436%,50.19989%,49.01886%);fill-opacity:1;" d="M 320.527344 341.640625 C 320.527344 341.640625 335.074219 380.84375 337.949219 382.703125 C 340.824219 384.566406 369.152344 382.875 374.566406 384.652344 C 379.976562 386.429688 404.921875 371.445312 404.921875 371.445312 C 404.921875 371.445312 397.058594 362.976562 385.8125 362.722656 C 374.566406 362.554688 348.6875 344.519531 345.8125 333.429688 Z M 320.527344 341.640625 "/>
</g>
<path style=" stroke:none;fill-rule:nonzero;fill:rgb(82.348633%,47.839355%,30.589294%);fill-opacity:1;" d="M 84.679688 138.011719 C 84.679688 138.011719 72.332031 150.035156 68.867188 154.101562 C 65.398438 158.078125 60.15625 157.996094 63.285156 151.390625 L 64.804688 149.105469 C 64.804688 149.105469 59.226562 151.050781 56.433594 160.195312 C 53.8125 168.664062 51.53125 169.847656 50.683594 168.410156 C 49.839844 166.96875 50.429688 160.28125 50.429688 160.28125 C 50.429688 160.28125 49.414062 168.410156 46.964844 168.492188 C 44.511719 168.578125 43.496094 165.359375 44.59375 161.890625 C 44.59375 161.890625 44.59375 166.546875 42.226562 167.308594 C 39.859375 168.070312 35.207031 134.289062 78.84375 127.34375 Z M 84.679688 138.011719 "/>
<path style=" stroke:none;fill-rule:nonzero;fill:rgb(76.078796%,64.709473%,46.269226%);fill-opacity:1;" d="M 217.53125 107.195312 L 193.089844 104.484375 C 193.089844 104.484375 143.535156 94.15625 69.457031 125.480469 L 78.503906 151.304688 C 78.503906 151.304688 127.128906 133.273438 156.472656 138.4375 C 157.320312 138.605469 158.082031 138.691406 158.839844 138.773438 C 158.839844 138.773438 204.167969 177.128906 217.699219 172.386719 C 231.230469 167.648438 233.425781 168.15625 233.425781 168.15625 C 233.425781 168.15625 250.339844 217.855469 271.820312 217.433594 C 293.046875 217.007812 282.980469 128.277344 217.53125 107.195312 Z M 217.53125 107.195312 "/>
<path style=" stroke:none;fill-rule:nonzero;fill:rgb(36.859131%,58.039856%,54.119873%);fill-opacity:1;" d="M 231.398438 208.710938 C 225.648438 203.207031 222.941406 197.367188 224.464844 189.914062 C 225.902344 183.226562 228.269531 175.859375 230.890625 169.59375 C 231.3125 168.492188 231.988281 167.394531 231.90625 166.207031 C 231.90625 165.867188 231.820312 165.445312 231.652344 164.9375 C 233.597656 152.828125 238.5 120.910156 238.417969 117.183594 C 238.246094 112.695312 227.761719 110.242188 227.675781 111.171875 C 227.675781 111.171875 221.757812 157.148438 217.613281 168.492188 C 216.9375 168.664062 216.175781 168.664062 215.5 168.492188 C 191.652344 162.90625 176.683594 150.714844 168.820312 142.839844 C 167.804688 141.824219 167.382812 140.46875 167.636719 139.027344 L 175.585938 102.789062 C 175.585938 102.789062 171.609375 100.082031 165.097656 102.789062 L 151.738281 146.648438 C 151.652344 146.988281 151.570312 147.242188 151.398438 147.582031 C 150.214844 149.78125 149.117188 152.238281 148.015625 155.03125 C 148.015625 155.117188 147.933594 155.117188 147.933594 155.117188 L 147.847656 155.285156 C 146.832031 157.996094 145.820312 160.957031 144.972656 164.175781 C 144.972656 164.175781 144.972656 164.261719 144.972656 164.261719 C 139.984375 182.632812 137.617188 209.304688 141.675781 242.917969 C 149.371094 306.925781 242.730469 307.351562 243.152344 307.351562 C 243.066406 307.265625 238.925781 301.253906 251.523438 276.359375 C 265.222656 249.265625 312.410156 225.984375 312.410156 225.984375 C 293.046875 210.828125 246.195312 222.765625 231.398438 208.710938 Z M 231.398438 208.710938 "/>
<path style=" stroke:none;fill-rule:nonzero;fill:rgb(16.859436%,50.19989%,49.01886%);fill-opacity:1;" d="M 298.878906 230.132812 C 298.457031 229.707031 298.289062 229.117188 298.289062 228.523438 C 298.289062 227.167969 299.386719 226.066406 300.742188 226.066406 C 302.09375 226.066406 303.191406 227.167969 303.191406 228.523438 C 303.191406 229.199219 302.9375 229.707031 302.515625 230.132812 C 302.855469 230.21875 303.445312 230.386719 304.207031 230.640625 C 305.5625 229.878906 306.828125 229.199219 307.84375 228.609375 L 307.675781 228.4375 L 310.886719 226.152344 L 311.820312 225.476562 C 310.804688 224.714844 309.789062 224.035156 308.605469 223.445312 C 305.476562 225.558594 302.179688 226.320312 302.179688 226.320312 C 302.179688 226.320312 302.683594 224.035156 304.207031 221.496094 C 303.109375 221.074219 302.007812 220.734375 300.824219 220.394531 L 300.742188 220.480469 L 300.65625 220.394531 C 299.050781 219.972656 297.359375 219.546875 295.582031 219.210938 C 298.289062 222.597656 299.132812 226.40625 299.132812 226.40625 C 299.132812 226.40625 290.675781 224.542969 288.054688 218.109375 C 286.027344 217.855469 283.996094 217.6875 281.96875 217.515625 C 279.597656 224.375 270.636719 226.320312 270.636719 226.320312 C 270.636719 226.320312 271.902344 220.820312 276.132812 217.09375 C 274.695312 217.007812 273.171875 216.925781 271.734375 216.925781 L 271.480469 217.261719 L 269.199219 220.480469 L 266.914062 217.261719 L 266.492188 216.671875 C 264.714844 216.585938 263.023438 216.5 261.25 216.414062 C 266.152344 220.058594 267.589844 226.320312 267.589844 226.320312 C 267.589844 226.320312 257.445312 224.035156 255.921875 216.078125 C 254.398438 215.992188 252.960938 215.824219 251.523438 215.652344 C 250.253906 223.953125 239.769531 226.320312 239.769531 226.320312 C 239.769531 226.320312 241.628906 218.363281 248.226562 215.144531 C 246.367188 214.890625 244.589844 214.46875 242.898438 214.046875 L 240.617188 217.179688 L 238.332031 220.394531 L 236.046875 217.179688 L 233.765625 213.960938 L 242.8125 213.960938 C 238.246094 212.773438 234.441406 211.082031 231.734375 208.542969 C 231.3125 208.117188 230.976562 207.78125 230.550781 207.355469 C 229.03125 208.542969 227.167969 209.472656 224.886719 209.8125 C 224.886719 207.101562 225.902344 204.984375 227.253906 203.207031 C 226.578125 202.191406 226.070312 201.089844 225.5625 199.992188 L 224.800781 200.582031 L 224.800781 197.621094 C 224.210938 195.164062 224.210938 192.539062 224.800781 189.660156 C 225.054688 188.390625 225.394531 187.035156 225.730469 185.765625 C 225.226562 184.582031 224.886719 183.226562 224.886719 181.703125 C 225.5625 181.785156 226.15625 181.957031 226.746094 182.125 C 227.253906 180.347656 227.847656 178.652344 228.4375 176.875 C 227.421875 177.382812 226.238281 177.808594 224.886719 177.976562 C 224.886719 172.558594 228.691406 169.425781 231.90625 167.648438 C 232.074219 167.054688 232.242188 166.546875 232.242188 165.953125 C 232.242188 165.613281 232.160156 165.191406 231.988281 164.683594 C 232.160156 163.5 232.414062 162.144531 232.667969 160.621094 C 229.285156 158.925781 224.972656 155.707031 224.972656 149.953125 C 228.945312 150.628906 231.734375 152.914062 233.511719 155.285156 C 233.765625 153.761719 234.019531 152.152344 234.273438 150.542969 L 233.851562 149.953125 L 234.359375 149.953125 C 234.609375 148.425781 234.863281 146.902344 235.035156 145.292969 L 233.851562 145.292969 L 235.371094 143.179688 C 235.878906 139.875 236.386719 136.574219 236.808594 133.527344 C 236.386719 135.21875 233.511719 144.023438 224.972656 145.464844 C 225.054688 136.742188 234.863281 133.78125 236.554688 133.273438 C 236.132812 132.847656 235.964844 132.253906 235.964844 131.664062 C 235.964844 130.984375 236.21875 130.394531 236.640625 129.96875 C 235.710938 129.714844 229.367188 128.023438 226.410156 123.113281 C 226.238281 124.550781 225.984375 126.074219 225.730469 127.683594 L 228.101562 129.375 L 231.3125 131.664062 L 228.101562 133.949219 L 224.886719 136.234375 L 224.886719 133.1875 C 224.292969 137.082031 223.617188 141.144531 222.941406 145.125 C 223.957031 145.464844 224.632812 146.394531 224.632812 147.496094 C 224.632812 148.851562 223.535156 149.953125 222.179688 149.953125 C 222.179688 149.953125 222.179688 149.953125 222.097656 149.953125 C 221.417969 153.59375 220.742188 157.0625 220.066406 160.113281 L 220.066406 168.917969 L 218.121094 167.5625 C 218.035156 167.816406 217.953125 168.15625 217.867188 168.410156 C 217.191406 168.578125 216.429688 168.578125 215.753906 168.410156 C 214.570312 168.15625 213.386719 167.816406 212.285156 167.5625 C 215.667969 169.253906 219.8125 172.472656 219.8125 178.144531 C 211.441406 176.792969 208.566406 168.238281 207.972656 166.292969 C 207.550781 166.632812 207.042969 166.800781 206.453125 166.800781 C 205.859375 166.800781 205.265625 166.546875 204.84375 166.207031 C 204.421875 167.902344 201.546875 176.707031 193.003906 178.144531 C 193.089844 169.425781 202.898438 166.460938 204.589844 165.953125 C 204.335938 165.699219 204.167969 165.359375 204.082031 164.9375 C 200.617188 163.667969 197.488281 162.3125 194.441406 160.875 L 196.050781 162.058594 L 199.261719 164.34375 L 196.050781 166.632812 L 192.835938 168.917969 L 192.835938 160.113281 C 190.636719 159.011719 188.523438 157.824219 186.496094 156.554688 C 183.027344 160.875 176.9375 162.226562 176.9375 162.226562 C 176.9375 162.226562 178.121094 157.234375 181.925781 153.507812 C 180.914062 152.828125 179.984375 152.152344 179.050781 151.476562 L 177.867188 153.167969 L 175.585938 156.386719 L 173.300781 153.167969 L 171.019531 149.953125 L 177.191406 149.953125 C 175.164062 148.34375 173.386719 146.820312 171.78125 145.292969 L 171.019531 145.292969 L 171.355469 144.871094 C 170.511719 144.109375 169.75 143.347656 169.074219 142.667969 C 168.90625 142.5 168.820312 142.332031 168.734375 142.246094 C 167.042969 143.769531 164.929688 144.957031 162.222656 145.464844 C 162.222656 140.382812 165.605469 137.25 168.734375 135.472656 L 170.257812 128.445312 C 166.875 126.753906 162.5625 123.535156 162.5625 117.777344 C 166.707031 118.453125 169.496094 120.910156 171.355469 123.449219 L 172.203125 119.640625 L 171.355469 118.453125 L 172.457031 118.453125 L 173.554688 113.628906 L 171.1875 113.628906 L 173.472656 110.410156 L 174.570312 108.886719 L 175.921875 102.707031 C 175.921875 102.707031 175.671875 102.535156 175.332031 102.367188 C 174.992188 102.28125 174.65625 102.199219 174.402344 102.027344 C 174.316406 102.027344 174.230469 101.945312 174.148438 101.945312 C 173.554688 103.890625 170.679688 112.359375 162.308594 113.796875 C 162.308594 113.460938 162.394531 113.207031 162.394531 112.867188 L 161.886719 114.644531 C 162.054688 114.984375 162.222656 115.40625 162.222656 115.828125 C 162.222656 116.761719 161.632812 117.609375 160.871094 118.03125 L 157.574219 128.785156 L 157.574219 136.320312 L 155.710938 134.964844 L 154.613281 138.519531 C 156.21875 140.300781 157.320312 142.585938 157.320312 145.546875 C 155.628906 145.292969 154.191406 144.703125 152.921875 143.941406 L 152.078125 146.566406 C 151.992188 146.902344 151.90625 147.15625 151.738281 147.496094 C 150.554688 149.695312 149.453125 152.152344 148.355469 154.945312 C 148.355469 155.03125 148.269531 155.03125 148.269531 155.03125 L 148.1875 155.199219 C 147.933594 155.878906 147.679688 156.554688 147.425781 157.316406 C 149.203125 154.355469 152.246094 150.96875 157.234375 150.121094 C 157.148438 158.503906 148.1875 161.550781 145.820312 162.226562 C 145.734375 162.398438 145.734375 162.566406 145.648438 162.820312 C 146.074219 163.246094 146.328125 163.835938 146.328125 164.515625 C 146.328125 165.191406 146.074219 165.699219 145.648438 166.121094 C 147.679688 166.632812 157.066406 169.679688 157.152344 178.230469 C 148.695312 176.792969 145.820312 168.238281 145.3125 166.375 C 145.058594 166.546875 144.804688 166.714844 144.550781 166.800781 C 144.128906 168.664062 143.621094 170.527344 143.28125 172.558594 L 143.875 171.796875 L 146.15625 175.011719 L 148.441406 178.230469 L 142.265625 178.230469 C 142.097656 179.414062 141.84375 180.6875 141.675781 181.957031 L 148.355469 181.957031 L 146.074219 185.171875 L 143.789062 188.390625 L 141.507812 185.171875 L 141.253906 184.835938 C 141 186.613281 140.828125 188.390625 140.660156 190.253906 C 141.761719 192.453125 142.183594 194.234375 142.183594 194.234375 C 142.183594 194.234375 141.421875 194.0625 140.320312 193.640625 C 140.238281 195.25 140.070312 196.859375 139.984375 198.464844 C 140.828125 198.128906 141.507812 197.957031 141.84375 197.875 C 141.421875 197.449219 141.253906 196.859375 141.253906 196.265625 C 141.253906 194.910156 142.351562 193.808594 143.703125 193.808594 C 145.058594 193.808594 146.15625 194.910156 146.15625 196.265625 C 146.15625 196.941406 145.902344 197.449219 145.480469 197.875 C 147.511719 198.382812 156.898438 201.429688 156.980469 209.980469 C 148.523438 208.542969 145.648438 199.992188 145.140625 198.128906 C 144.71875 198.464844 144.210938 198.636719 143.621094 198.636719 C 143.027344 198.636719 142.4375 198.382812 142.011719 198.042969 C 141.84375 198.804688 141.167969 200.835938 139.730469 203.125 C 139.644531 205.070312 139.644531 207.019531 139.644531 209.050781 L 141.335938 206.679688 L 143.621094 203.460938 L 145.902344 206.679688 L 148.1875 209.898438 L 139.644531 209.898438 C 139.644531 211.335938 139.644531 212.691406 139.644531 214.128906 L 148.1875 214.128906 L 145.902344 217.347656 L 143.621094 220.566406 L 141.335938 217.347656 L 139.730469 215.0625 C 139.730469 217.09375 139.816406 219.125 139.898438 221.242188 C 141.507812 223.953125 142.097656 226.320312 142.097656 226.320312 C 142.097656 226.320312 141.335938 226.152344 140.152344 225.730469 C 140.238281 227.253906 140.320312 228.863281 140.492188 230.386719 C 141.082031 230.21875 141.507812 230.046875 141.84375 229.964844 C 141.421875 229.539062 141.253906 228.945312 141.253906 228.355469 C 141.253906 227 142.351562 225.898438 143.703125 225.898438 C 145.058594 225.898438 146.15625 227 146.15625 228.355469 C 146.15625 229.03125 145.902344 229.539062 145.480469 229.964844 C 147.511719 230.472656 156.898438 233.519531 156.980469 242.070312 C 148.523438 240.632812 145.648438 232.078125 145.140625 230.21875 C 144.71875 230.554688 144.210938 230.726562 143.621094 230.726562 C 143.027344 230.726562 142.4375 230.472656 142.011719 230.132812 C 141.84375 230.640625 141.507812 231.910156 140.746094 233.433594 C 140.914062 235.210938 141.082031 237.074219 141.253906 238.851562 L 141.335938 238.769531 L 143.621094 235.550781 L 145.902344 238.769531 L 148.1875 241.984375 L 141.589844 241.984375 C 141.589844 242.238281 141.675781 242.578125 141.675781 242.832031 C 141.84375 244.019531 142.011719 245.117188 142.183594 246.21875 L 148.1875 246.21875 L 145.902344 249.4375 L 143.621094 252.570312 C 144.128906 254.261719 144.636719 255.957031 145.3125 257.566406 C 146.15625 254.941406 149.203125 247.574219 156.980469 246.21875 C 156.898438 254.601562 148.015625 257.648438 145.648438 258.328125 C 146.328125 259.9375 147.003906 261.460938 147.765625 262.984375 C 151.230469 264.421875 156.980469 267.726562 156.980469 274.328125 C 156.21875 274.246094 155.542969 273.992188 154.953125 273.820312 C 155.628906 274.582031 156.304688 275.34375 156.980469 276.105469 C 157.152344 274.921875 158.164062 273.90625 159.433594 273.90625 C 160.785156 273.90625 161.886719 275.007812 161.886719 276.359375 C 161.886719 277.632812 160.871094 278.648438 159.6875 278.816406 C 160.703125 279.746094 161.632812 280.679688 162.730469 281.527344 C 162.308594 280.425781 162.054688 279.238281 162.054688 277.886719 C 170.003906 279.238281 172.964844 286.859375 173.726562 289.316406 C 174.0625 289.484375 174.316406 289.652344 174.65625 289.824219 C 174.910156 289.738281 175.246094 289.652344 175.5 289.652344 C 176.683594 289.652344 177.699219 290.5 177.953125 291.601562 C 181.421875 293.464844 184.972656 295.074219 188.609375 296.425781 L 185.734375 294.394531 L 182.519531 292.109375 L 185.734375 289.824219 L 188.945312 287.539062 L 188.945312 296.597656 C 191.144531 297.445312 193.429688 298.289062 195.628906 298.96875 C 198.671875 295.410156 203.40625 293.972656 204.589844 293.71875 C 204.167969 293.292969 204 292.703125 204 292.109375 C 204 290.753906 205.097656 289.652344 206.453125 289.652344 C 207.804688 289.652344 208.902344 290.753906 208.902344 292.109375 C 208.902344 292.785156 208.648438 293.292969 208.226562 293.71875 C 210.171875 294.226562 218.882812 297.019531 219.644531 304.808594 C 221.417969 305.0625 223.109375 305.316406 224.71875 305.570312 C 224.972656 297.019531 234.609375 294.140625 236.300781 293.71875 C 235.878906 293.292969 235.710938 292.703125 235.710938 292.109375 C 235.710938 290.753906 236.808594 289.652344 238.164062 289.652344 C 239.515625 289.652344 240.617188 290.753906 240.617188 292.109375 C 240.617188 292.785156 240.363281 293.292969 239.9375 293.71875 C 240.617188 293.886719 242.054688 294.3125 243.746094 295.15625 C 244.421875 292.785156 245.351562 289.90625 246.703125 286.605469 C 243.40625 289.144531 239.515625 289.992188 239.515625 289.992188 C 239.515625 289.992188 241.882812 280.003906 250.59375 277.96875 C 250.761719 277.632812 250.933594 277.292969 251.101562 276.953125 C 251.015625 276.699219 251.015625 276.445312 251.015625 276.191406 C 251.015625 275.089844 251.777344 274.160156 252.792969 273.820312 C 256.007812 268.234375 260.65625 262.8125 265.816406 257.820312 C 262.601562 256.71875 255.5 253.5 255.5 246.050781 C 262.769531 247.234375 265.898438 253.753906 266.914062 256.804688 C 271.652344 252.316406 276.894531 248.167969 281.96875 244.441406 C 281.96875 244.273438 281.882812 244.1875 281.882812 244.019531 C 281.882812 242.664062 282.980469 241.5625 284.335938 241.5625 C 284.757812 241.5625 285.179688 241.648438 285.519531 241.902344 C 286.027344 241.5625 286.535156 241.222656 286.957031 240.886719 C 288.226562 233.265625 297.1875 230.554688 298.878906 230.132812 Z M 224.800781 164.515625 L 224.800781 159.941406 L 228.015625 162.226562 L 231.230469 164.515625 L 224.800781 169.085938 Z M 154.273438 166.800781 L 151.0625 164.515625 L 154.273438 162.226562 L 157.488281 159.941406 L 157.488281 169.085938 Z M 145.3125 194.148438 C 145.3125 194.148438 147.765625 183.480469 157.234375 181.871094 C 157.152344 191.523438 145.3125 194.148438 145.3125 194.148438 Z M 154.273438 198.550781 L 151.0625 196.265625 L 154.273438 193.980469 L 157.488281 191.691406 L 157.488281 200.835938 Z M 145.3125 226.40625 C 145.3125 226.40625 147.765625 215.738281 157.234375 214.128906 C 157.152344 223.78125 145.3125 226.40625 145.3125 226.40625 Z M 154.273438 230.808594 L 151.0625 228.523438 L 154.273438 226.238281 L 157.488281 223.953125 L 157.488281 233.09375 Z M 157.402344 260.699219 L 157.402344 265.269531 L 154.191406 262.984375 L 150.976562 260.699219 L 154.191406 258.410156 L 157.402344 256.125 Z M 159.601562 246.8125 C 158.25 246.8125 157.152344 245.710938 157.152344 244.355469 C 157.152344 243 158.25 241.902344 159.601562 241.902344 C 160.957031 241.902344 162.054688 243 162.054688 244.355469 C 162.054688 245.710938 160.957031 246.8125 159.601562 246.8125 Z M 159.601562 214.554688 C 158.25 214.554688 157.152344 213.453125 157.152344 212.097656 C 157.152344 210.742188 158.25 209.640625 159.601562 209.640625 C 160.957031 209.640625 162.054688 210.742188 162.054688 212.097656 C 162.054688 213.453125 160.957031 214.554688 159.601562 214.554688 Z M 159.601562 182.886719 C 158.25 182.886719 157.152344 181.785156 157.152344 180.433594 C 157.152344 179.078125 158.25 177.976562 159.601562 177.976562 C 160.957031 177.976562 162.054688 179.078125 162.054688 180.433594 C 162.054688 181.785156 160.957031 182.886719 159.601562 182.886719 Z M 159.601562 150.207031 C 158.25 150.207031 157.152344 149.105469 157.152344 147.75 C 157.152344 146.394531 158.25 145.292969 159.601562 145.292969 C 160.957031 145.292969 162.054688 146.394531 162.054688 147.75 C 162.054688 149.105469 160.957031 150.207031 159.601562 150.207031 Z M 255.582031 228.523438 L 255.582031 223.867188 L 262.011719 228.4375 L 258.796875 230.726562 L 255.582031 233.011719 Z M 248.480469 226.238281 L 251.691406 223.953125 L 251.691406 233.09375 L 248.480469 230.808594 L 245.265625 228.523438 Z M 240.785156 228.523438 C 240.785156 229.199219 240.53125 229.707031 240.109375 230.132812 C 242.136719 230.640625 251.523438 233.6875 251.609375 242.238281 C 243.152344 240.800781 240.277344 232.25 239.769531 230.386719 C 239.347656 230.726562 238.839844 230.894531 238.246094 230.894531 C 237.65625 230.894531 237.0625 230.640625 236.640625 230.300781 C 236.21875 231.996094 233.34375 240.800781 224.800781 242.238281 C 224.886719 233.519531 234.695312 230.554688 236.386719 230.046875 C 235.964844 229.625 235.796875 229.03125 235.796875 228.4375 C 235.796875 227.085938 236.894531 225.984375 238.246094 225.984375 C 239.683594 225.984375 240.785156 227.167969 240.785156 228.523438 Z M 236.050781 249.605469 L 233.765625 246.386719 L 242.898438 246.386719 L 240.617188 249.605469 L 238.332031 252.824219 Z M 236.808594 258.664062 C 236.808594 258.664062 224.972656 256.039062 224.886719 246.386719 C 234.359375 247.996094 236.808594 258.664062 236.808594 258.664062 Z M 238.332031 242.15625 L 233.765625 242.15625 L 236.050781 238.9375 L 238.332031 235.71875 L 240.617188 238.9375 L 242.898438 242.15625 Z M 236.808594 226.40625 C 236.808594 226.40625 224.972656 223.78125 224.886719 214.128906 C 234.359375 215.738281 236.808594 226.40625 236.808594 226.40625 Z M 224.800781 228.523438 L 224.800781 223.867188 L 231.230469 228.4375 L 228.015625 230.726562 L 224.800781 233.011719 Z M 224.800781 260.699219 L 224.800781 256.125 L 228.015625 258.410156 L 231.230469 260.699219 L 224.800781 265.269531 Z M 222.179688 177.890625 C 223.535156 177.890625 224.632812 178.992188 224.632812 180.347656 C 224.632812 181.703125 223.535156 182.800781 222.179688 182.800781 C 220.828125 182.800781 219.726562 181.703125 219.726562 180.347656 C 219.644531 178.992188 220.742188 177.890625 222.179688 177.890625 Z M 208.058594 262.644531 C 207.636719 262.984375 207.128906 263.152344 206.535156 263.152344 C 205.945312 263.152344 205.351562 262.898438 204.929688 262.558594 C 204.507812 264.253906 201.632812 273.058594 193.089844 274.5 C 193.175781 265.777344 202.984375 262.8125 204.675781 262.304688 C 204.253906 261.882812 204.082031 261.289062 204.082031 260.699219 C 204.082031 259.34375 205.183594 258.242188 206.535156 258.242188 C 207.890625 258.242188 208.988281 259.34375 208.988281 260.699219 C 208.988281 261.375 208.734375 261.882812 208.3125 262.304688 C 210.339844 262.8125 219.726562 265.863281 219.8125 274.414062 C 211.441406 273.144531 208.566406 264.507812 208.058594 262.644531 Z M 211.101562 274.414062 L 201.96875 274.414062 L 204.253906 271.195312 L 206.535156 267.980469 L 208.820312 271.195312 Z M 177.109375 258.664062 C 177.109375 258.664062 179.558594 247.996094 189.03125 246.386719 C 188.945312 256.039062 177.109375 258.664062 177.109375 258.664062 Z M 189.03125 256.125 L 189.03125 265.269531 L 185.816406 262.984375 L 182.605469 260.699219 L 185.816406 258.410156 Z M 173.21875 228.523438 C 173.21875 227.167969 174.316406 226.066406 175.671875 226.066406 C 177.023438 226.066406 178.121094 227.167969 178.121094 228.523438 C 178.121094 229.199219 177.867188 229.707031 177.445312 230.132812 C 179.476562 230.640625 188.863281 233.6875 188.945312 242.238281 C 180.488281 240.800781 177.613281 232.25 177.109375 230.386719 C 176.683594 230.726562 176.175781 230.894531 175.585938 230.894531 C 174.992188 230.894531 174.402344 230.640625 173.980469 230.300781 C 173.554688 231.996094 170.679688 240.800781 162.140625 242.238281 C 162.222656 233.519531 172.035156 230.554688 173.726562 230.046875 C 173.472656 229.707031 173.21875 229.117188 173.21875 228.523438 Z M 173.21875 196.265625 C 173.21875 194.910156 174.316406 193.808594 175.671875 193.808594 C 177.023438 193.808594 178.121094 194.910156 178.121094 196.265625 C 178.121094 196.941406 177.867188 197.449219 177.445312 197.875 C 179.476562 198.382812 188.863281 201.429688 188.945312 209.980469 C 180.488281 208.542969 177.613281 199.992188 177.109375 198.128906 C 176.683594 198.464844 176.175781 198.636719 175.585938 198.636719 C 174.992188 198.636719 174.402344 198.382812 173.980469 198.042969 C 173.554688 199.734375 170.679688 208.542969 162.140625 209.980469 C 162.222656 201.261719 172.035156 198.296875 173.726562 197.789062 C 173.472656 197.449219 173.21875 196.859375 173.21875 196.265625 Z M 206.535156 214.214844 L 211.101562 214.214844 L 208.820312 217.433594 L 206.535156 220.648438 L 204.253906 217.433594 L 201.96875 214.214844 Z M 201.96875 209.898438 L 204.253906 206.679688 L 206.535156 203.460938 L 208.820312 206.679688 L 211.101562 209.898438 Z M 205.015625 226.40625 C 205.015625 226.40625 193.175781 223.78125 193.089844 214.128906 C 202.5625 215.738281 205.015625 226.40625 205.015625 226.40625 Z M 199.347656 228.523438 L 196.132812 230.808594 L 192.921875 233.09375 L 192.921875 223.867188 L 196.132812 226.152344 Z M 191.0625 214.554688 C 189.707031 214.554688 188.609375 213.453125 188.609375 212.097656 C 188.609375 210.742188 189.707031 209.640625 191.0625 209.640625 C 192.414062 209.640625 193.511719 210.742188 193.511719 212.097656 C 193.511719 213.453125 192.414062 214.554688 191.0625 214.554688 Z M 177.109375 226.40625 C 177.109375 226.40625 179.558594 215.738281 189.03125 214.128906 C 188.945312 223.78125 177.109375 226.40625 177.109375 226.40625 Z M 189.03125 223.867188 L 189.03125 233.011719 L 185.816406 230.726562 L 182.605469 228.4375 L 185.816406 226.152344 Z M 175.671875 214.214844 L 180.238281 214.214844 L 177.953125 217.433594 L 175.671875 220.648438 L 173.386719 217.433594 L 171.105469 214.214844 Z M 171.105469 209.898438 L 173.386719 206.679688 L 175.671875 203.460938 L 177.953125 206.679688 L 180.238281 209.898438 Z M 189.03125 200.835938 L 185.816406 198.550781 L 182.605469 196.265625 L 185.816406 193.980469 L 189.03125 191.691406 Z M 177.109375 194.148438 C 177.109375 194.148438 179.558594 183.480469 189.03125 181.871094 C 188.945312 191.523438 177.109375 194.148438 177.109375 194.148438 Z M 175.671875 181.957031 L 180.238281 181.957031 L 177.953125 185.171875 L 175.671875 188.390625 L 173.386719 185.171875 L 171.105469 181.957031 Z M 171.105469 178.230469 L 173.386719 175.011719 L 175.671875 171.796875 L 177.953125 175.011719 L 180.238281 178.230469 Z M 174.148438 194.148438 C 174.148438 194.148438 162.308594 191.523438 162.222656 181.871094 C 171.695312 183.480469 174.148438 194.148438 174.148438 194.148438 Z M 174.148438 226.40625 C 174.148438 226.40625 162.308594 223.78125 162.222656 214.128906 C 171.695312 215.738281 174.148438 226.40625 174.148438 226.40625 Z M 180.238281 242.15625 L 171.105469 242.15625 L 173.386719 238.9375 L 175.671875 235.71875 L 177.953125 238.9375 Z M 174.148438 258.664062 C 174.148438 258.664062 162.308594 256.039062 162.222656 246.386719 C 171.695312 247.996094 174.148438 258.664062 174.148438 258.664062 Z M 173.386719 249.605469 L 171.105469 246.386719 L 180.238281 246.386719 L 177.953125 249.605469 L 175.671875 252.824219 Z M 188.609375 244.355469 C 188.609375 243 189.707031 241.902344 191.0625 241.902344 C 192.414062 241.902344 193.511719 243 193.511719 244.355469 C 193.511719 245.710938 192.414062 246.8125 191.0625 246.8125 C 189.707031 246.8125 188.609375 245.710938 188.609375 244.355469 Z M 206.535156 246.386719 L 211.101562 246.386719 L 208.820312 249.605469 L 206.535156 252.824219 L 204.253906 249.605469 L 201.96875 246.386719 Z M 201.96875 242.15625 L 204.253906 238.9375 L 206.535156 235.71875 L 208.820312 238.9375 L 211.101562 242.15625 Z M 205.015625 258.664062 C 205.015625 258.664062 193.175781 256.039062 193.089844 246.386719 C 202.5625 247.996094 205.015625 258.664062 205.015625 258.664062 Z M 192.921875 260.699219 L 192.921875 256.125 L 196.132812 258.410156 L 199.347656 260.699219 L 196.132812 262.984375 L 192.921875 265.269531 Z M 216.9375 263.066406 L 213.722656 260.78125 L 220.152344 256.210938 L 220.152344 265.355469 Z M 207.972656 258.664062 C 207.972656 258.664062 210.425781 247.996094 219.898438 246.386719 C 219.8125 256.039062 207.972656 258.664062 207.972656 258.664062 Z M 208.058594 230.386719 C 207.636719 230.726562 207.128906 230.894531 206.535156 230.894531 C 205.945312 230.894531 205.351562 230.640625 204.929688 230.300781 C 204.507812 231.996094 201.632812 240.800781 193.089844 242.238281 C 193.175781 233.519531 202.984375 230.554688 204.675781 230.046875 C 204.253906 229.625 204.082031 229.03125 204.082031 228.4375 C 204.082031 227.085938 205.183594 225.984375 206.535156 225.984375 C 207.890625 225.984375 208.988281 227.085938 208.988281 228.4375 C 208.988281 229.117188 208.734375 229.625 208.3125 230.046875 C 210.339844 230.554688 219.726562 233.605469 219.8125 242.15625 C 211.441406 240.886719 208.566406 232.25 208.058594 230.386719 Z M 216.9375 230.808594 L 213.722656 228.523438 L 220.152344 223.953125 L 220.152344 233.09375 Z M 207.972656 226.40625 C 207.972656 226.40625 210.425781 215.738281 219.898438 214.128906 C 219.8125 223.78125 207.972656 226.40625 207.972656 226.40625 Z M 208.058594 198.128906 C 207.636719 198.464844 207.128906 198.636719 206.535156 198.636719 C 205.945312 198.636719 205.351562 198.382812 204.929688 198.042969 C 204.507812 199.734375 201.632812 208.542969 193.089844 209.980469 C 193.175781 201.261719 202.984375 198.296875 204.675781 197.789062 C 204.253906 197.367188 204.082031 196.773438 204.082031 196.179688 C 204.082031 194.824219 205.183594 193.726562 206.535156 193.726562 C 207.890625 193.726562 208.988281 194.824219 208.988281 196.179688 C 208.988281 196.859375 208.734375 197.367188 208.3125 197.789062 C 210.339844 198.296875 219.726562 201.34375 219.8125 209.898438 C 211.441406 208.625 208.566406 199.992188 208.058594 198.128906 Z M 192.921875 200.835938 L 192.921875 191.691406 L 196.132812 193.980469 L 199.347656 196.265625 L 196.132812 198.550781 Z M 216.9375 198.550781 L 213.722656 196.265625 L 216.9375 193.980469 L 220.152344 191.691406 L 220.152344 200.835938 Z M 219.898438 181.957031 C 219.8125 191.523438 207.972656 194.234375 207.972656 194.234375 C 207.972656 194.234375 210.425781 183.480469 219.898438 181.957031 Z M 204.253906 175.011719 L 206.535156 171.796875 L 208.820312 175.011719 L 211.101562 178.230469 L 201.96875 178.230469 Z M 206.535156 181.957031 L 211.101562 181.957031 L 208.820312 185.171875 L 206.535156 188.304688 L 204.253906 185.089844 L 201.96875 181.871094 L 206.535156 181.871094 Z M 205.015625 194.148438 C 205.015625 194.148438 193.175781 191.523438 193.089844 181.871094 C 202.5625 183.480469 205.015625 194.148438 205.015625 194.148438 Z M 191.0625 177.890625 C 192.414062 177.890625 193.511719 178.992188 193.511719 180.347656 C 193.511719 181.703125 192.414062 182.800781 191.0625 182.800781 C 189.707031 182.800781 188.609375 181.703125 188.609375 180.347656 C 188.609375 178.992188 189.707031 177.890625 191.0625 177.890625 Z M 185.816406 162.226562 L 189.03125 159.941406 L 189.03125 169.085938 L 185.816406 166.800781 L 182.605469 164.515625 Z M 178.121094 164.515625 C 178.121094 165.191406 177.867188 165.699219 177.445312 166.121094 C 179.476562 166.632812 188.863281 169.679688 188.945312 178.230469 C 180.488281 176.792969 177.613281 168.238281 177.109375 166.375 C 176.683594 166.714844 176.175781 166.886719 175.585938 166.886719 C 174.992188 166.886719 174.402344 166.632812 173.980469 166.292969 C 173.554688 167.984375 170.679688 176.792969 162.140625 178.230469 C 162.222656 169.507812 172.035156 166.546875 173.726562 166.039062 C 173.300781 165.613281 173.132812 165.023438 173.132812 164.429688 C 173.132812 163.074219 174.234375 161.972656 175.585938 161.972656 C 177.023438 162.058594 178.121094 163.160156 178.121094 164.515625 Z M 174.148438 162.480469 C 174.148438 162.480469 162.308594 159.859375 162.222656 150.207031 C 171.695312 151.8125 174.148438 162.480469 174.148438 162.480469 Z M 162.140625 131.917969 L 162.140625 127.34375 L 165.351562 129.628906 L 168.566406 131.917969 L 165.351562 134.203125 L 162.140625 136.488281 Z M 162.140625 164.515625 L 162.140625 159.941406 L 165.351562 162.226562 L 168.566406 164.515625 L 165.351562 166.800781 L 162.140625 169.085938 Z M 162.140625 196.265625 L 162.140625 191.691406 L 165.351562 193.980469 L 168.566406 196.265625 L 165.351562 198.550781 L 162.140625 200.835938 Z M 162.140625 228.523438 L 162.140625 223.867188 L 165.351562 226.152344 L 168.566406 228.4375 L 165.351562 230.726562 L 162.140625 233.011719 Z M 162.140625 265.355469 L 162.140625 256.210938 L 165.351562 258.496094 L 168.566406 260.78125 L 165.351562 263.070312 Z M 162.222656 274.5 C 162.308594 265.777344 172.117188 262.8125 173.808594 262.304688 C 173.386719 261.882812 173.21875 261.289062 173.21875 260.699219 C 173.21875 259.34375 174.316406 258.242188 175.671875 258.242188 C 177.023438 258.242188 178.121094 259.34375 178.121094 260.699219 C 178.121094 261.375 177.867188 261.882812 177.445312 262.304688 C 179.476562 262.8125 188.863281 265.863281 188.945312 274.414062 C 180.488281 272.972656 177.613281 264.421875 177.109375 262.558594 C 176.683594 262.898438 176.175781 263.066406 175.585938 263.066406 C 174.992188 263.066406 174.402344 262.8125 173.980469 262.476562 C 173.554688 264.253906 170.765625 273.144531 162.222656 274.5 Z M 180.238281 274.414062 L 171.105469 274.414062 L 173.386719 271.195312 L 175.671875 267.980469 L 177.953125 271.195312 Z M 173.386719 281.355469 L 171.105469 278.140625 L 180.238281 278.140625 L 177.953125 281.355469 L 175.671875 284.574219 Z M 177.109375 290.417969 C 177.109375 290.417969 179.558594 279.746094 189.03125 278.140625 C 188.945312 287.792969 177.109375 290.417969 177.109375 290.417969 Z M 191.0625 279.070312 C 189.707031 279.070312 188.609375 277.96875 188.609375 276.617188 C 188.609375 275.261719 189.707031 274.160156 191.0625 274.160156 C 192.414062 274.160156 193.511719 275.261719 193.511719 276.617188 C 193.511719 277.96875 192.414062 279.070312 191.0625 279.070312 Z M 196.132812 294.734375 L 192.921875 297.019531 L 192.921875 287.875 L 196.132812 290.164062 L 199.347656 292.449219 Z M 193.089844 278.140625 C 202.5625 279.746094 205.015625 290.417969 205.015625 290.417969 C 205.015625 290.417969 193.089844 287.792969 193.089844 278.140625 Z M 204.253906 281.355469 L 201.96875 278.140625 L 211.101562 278.140625 L 208.820312 281.355469 L 206.535156 284.574219 Z M 207.972656 290.417969 C 207.972656 290.417969 210.425781 279.746094 219.898438 278.140625 C 219.8125 287.792969 207.972656 290.417969 207.972656 290.417969 Z M 220.066406 292.449219 L 220.066406 297.019531 L 216.851562 294.734375 L 213.640625 292.449219 L 216.851562 290.164062 L 220.066406 287.875 Z M 222.179688 279.070312 C 220.828125 279.070312 219.726562 277.96875 219.726562 276.617188 C 219.726562 275.261719 220.828125 274.160156 222.179688 274.160156 C 223.535156 274.160156 224.632812 275.261719 224.632812 276.617188 C 224.632812 277.96875 223.535156 279.070312 222.179688 279.070312 Z M 222.179688 246.8125 C 220.828125 246.8125 219.726562 245.710938 219.726562 244.355469 C 219.726562 243 220.828125 241.902344 222.179688 241.902344 C 223.535156 241.902344 224.632812 243 224.632812 244.355469 C 224.632812 245.710938 223.535156 246.8125 222.179688 246.8125 Z M 222.179688 214.554688 C 220.828125 214.554688 219.726562 213.453125 219.726562 212.097656 C 219.726562 210.742188 220.828125 209.640625 222.179688 209.640625 C 223.535156 209.640625 224.632812 210.742188 224.632812 212.097656 C 224.632812 213.453125 223.535156 214.554688 222.179688 214.554688 Z M 228.015625 294.734375 L 224.800781 297.019531 L 224.800781 287.875 L 228.015625 290.164062 L 231.230469 292.449219 Z M 224.886719 278.140625 C 234.359375 279.746094 236.808594 290.417969 236.808594 290.417969 C 236.808594 290.417969 224.972656 287.792969 224.886719 278.140625 Z M 240.617188 281.355469 L 238.332031 284.574219 L 236.050781 281.355469 L 233.765625 278.140625 L 242.898438 278.140625 Z M 238.332031 274.414062 L 233.765625 274.414062 L 236.050781 271.195312 L 238.332031 267.980469 L 240.617188 271.195312 L 242.898438 274.414062 Z M 239.855469 262.644531 C 239.429688 262.984375 238.925781 263.152344 238.332031 263.152344 C 237.738281 263.152344 237.148438 262.898438 236.726562 262.558594 C 236.300781 264.253906 233.425781 273.058594 224.886719 274.5 C 224.972656 265.777344 234.78125 262.8125 236.472656 262.304688 C 236.050781 261.882812 235.878906 261.289062 235.878906 260.699219 C 235.878906 259.34375 236.980469 258.242188 238.332031 258.242188 C 239.683594 258.242188 240.785156 259.34375 240.785156 260.699219 C 240.785156 261.375 240.53125 261.882812 240.109375 262.304688 C 242.136719 262.8125 251.523438 265.863281 251.609375 274.414062 C 243.238281 273.144531 240.363281 264.507812 239.855469 262.644531 Z M 251.691406 260.699219 L 251.691406 265.269531 L 248.480469 262.984375 L 245.265625 260.699219 L 248.480469 258.410156 L 251.691406 256.125 Z M 239.769531 258.664062 C 239.769531 258.664062 242.222656 247.996094 251.691406 246.386719 C 251.609375 256.039062 239.769531 258.664062 239.769531 258.664062 Z M 258.796875 258.410156 L 262.011719 260.699219 L 258.796875 262.984375 L 255.582031 265.355469 L 255.582031 256.210938 Z M 253.722656 246.8125 C 252.371094 246.8125 251.269531 245.710938 251.269531 244.355469 C 251.269531 243 252.371094 241.902344 253.722656 241.902344 C 255.074219 241.902344 256.175781 243 256.175781 244.355469 C 256.175781 245.710938 255.074219 246.8125 253.722656 246.8125 Z M 271.480469 249.605469 L 269.199219 252.824219 L 266.914062 249.605469 L 264.632812 246.386719 L 273.765625 246.386719 Z M 269.199219 242.15625 L 264.632812 242.15625 L 266.914062 238.9375 L 269.199219 235.71875 L 271.480469 238.9375 L 273.765625 242.15625 Z M 270.71875 230.386719 C 270.296875 230.726562 269.789062 230.894531 269.199219 230.894531 C 268.605469 230.894531 268.015625 230.640625 267.589844 230.300781 C 267.167969 231.996094 264.292969 240.800781 255.753906 242.238281 C 255.835938 233.519531 265.644531 230.554688 267.335938 230.046875 C 266.914062 229.625 266.746094 229.03125 266.746094 228.4375 C 266.746094 227.085938 267.84375 225.984375 269.199219 225.984375 C 270.550781 225.984375 271.652344 227.085938 271.652344 228.4375 C 271.652344 229.117188 271.398438 229.625 270.972656 230.046875 C 273.003906 230.554688 282.390625 233.605469 282.476562 242.15625 C 274.101562 240.886719 271.226562 232.25 270.71875 230.386719 Z M 282.726562 228.523438 L 282.726562 233.09375 L 279.515625 230.808594 L 276.300781 228.523438 L 279.515625 226.238281 L 282.726562 223.953125 Z M 287.210938 228.523438 L 287.210938 223.867188 L 290.421875 226.152344 L 293.636719 228.4375 L 290.421875 230.726562 L 287.210938 233.011719 Z M 287.210938 228.523438 "/>
<path style=" stroke:none;fill-rule:nonzero;fill:rgb(16.859436%,50.19989%,49.01886%);fill-opacity:1;" d="M 225.648438 306.078125 C 236.132812 307.433594 243.320312 307.519531 243.40625 307.519531 C 243.40625 307.519531 243.152344 307.097656 242.898438 306.164062 L 233.765625 306.164062 L 236.050781 302.945312 L 238.332031 299.730469 L 240.617188 302.945312 L 242.898438 306.078125 C 242.644531 304.980469 242.558594 303.285156 242.898438 300.578125 C 241.039062 297.953125 240.109375 295.328125 239.855469 294.394531 C 239.429688 294.734375 238.925781 294.902344 238.332031 294.902344 C 237.738281 294.902344 237.148438 294.648438 236.726562 294.3125 C 236.300781 295.917969 233.597656 304.21875 225.648438 306.078125 Z M 225.648438 306.078125 "/>
<path style=" stroke:none;fill-rule:nonzero;fill:rgb(16.859436%,50.19989%,49.01886%);fill-opacity:1;" d="M 204.84375 302.101562 L 206.453125 299.8125 L 208.734375 303.03125 L 208.820312 303.117188 C 210.933594 303.625 212.960938 304.046875 214.90625 304.386719 C 210.171875 301.339844 208.394531 295.835938 207.972656 294.394531 C 207.550781 294.734375 207.042969 294.902344 206.453125 294.902344 C 205.859375 294.902344 205.265625 294.648438 204.84375 294.3125 C 204.589844 295.242188 203.660156 298.289062 201.378906 301.167969 C 202.5625 301.421875 203.746094 301.761719 204.84375 302.101562 Z M 204.84375 302.101562 "/>
<path style=" stroke:none;fill-rule:nonzero;fill:rgb(16.859436%,50.19989%,49.01886%);fill-opacity:1;" d="M 173.300781 101.945312 C 171.527344 101.519531 168.820312 101.519531 165.4375 102.875 L 163.578125 108.886719 C 166.03125 104.484375 171.273438 102.535156 173.300781 101.945312 Z M 173.300781 101.945312 "/>
<path style=" stroke:none;fill-rule:nonzero;fill:rgb(16.859436%,50.19989%,49.01886%);fill-opacity:1;" d="M 236.640625 130.054688 C 236.808594 129.886719 237.0625 129.714844 237.316406 129.628906 C 237.570312 127.851562 237.738281 126.242188 237.992188 124.804688 L 235.878906 121.839844 L 233.597656 118.625 L 238.671875 118.625 C 238.753906 118.03125 238.753906 117.523438 238.753906 117.183594 C 238.671875 115.828125 237.738281 114.730469 236.386719 113.714844 L 233.765625 113.714844 L 234.527344 112.613281 C 233.257812 112.019531 231.90625 111.511719 230.722656 111.257812 C 229.875 111.933594 228.859375 112.527344 227.761719 112.949219 C 227.59375 114.222656 227.339844 116.082031 227 118.371094 C 234.105469 121.078125 236.386719 129.039062 236.640625 130.054688 Z M 236.640625 130.054688 "/>
<path style=" stroke:none;fill-rule:nonzero;fill:rgb(16.859436%,50.19989%,49.01886%);fill-opacity:1;" d="M 302.601562 231.570312 C 302.433594 231.0625 302.261719 230.640625 302.179688 230.386719 C 301.753906 230.726562 301.246094 230.894531 300.65625 230.894531 C 300.0625 230.894531 299.472656 230.640625 299.050781 230.300781 C 298.878906 230.980469 298.289062 232.757812 297.1875 234.789062 C 299.132812 233.605469 300.996094 232.585938 302.601562 231.570312 Z M 302.601562 231.570312 "/>
<path style=" stroke:none;fill-rule:nonzero;fill:rgb(35.289001%,19.999695%,7.449341%);fill-opacity:1;" d="M 243.660156 36.324219 C 236.894531 25.148438 229.792969 24.132812 225.140625 25.148438 C 214.992188 15.582031 198.078125 11.519531 181.421875 20.832031 C 148.695312 39.035156 172.117188 69.769531 172.117188 69.769531 C 172.117188 69.769531 196.980469 81.285156 216.429688 72.140625 C 217.023438 75.105469 217.699219 78.238281 218.542969 81.539062 C 228.101562 118.792969 256.765625 103.554688 256.765625 103.554688 C 242.8125 101.4375 255.160156 55.292969 243.660156 36.324219 Z M 243.660156 36.324219 "/>
<path style=" stroke:none;fill-rule:nonzero;fill:rgb(82.348633%,47.839355%,30.589294%);fill-opacity:1;" d="M 236.726562 59.949219 C 233.089844 59.441406 230.550781 60.542969 229.113281 61.558594 C 229.367188 48.519531 226.832031 37.171875 226.832031 37.171875 C 226.832031 37.171875 182.351562 15.582031 173.386719 43.945312 C 173.386719 43.945312 164.761719 93.308594 193.003906 99.488281 L 193.003906 105.753906 C 193.003906 112.78125 198.925781 118.453125 206.027344 117.945312 C 212.457031 117.523438 217.53125 112.1875 217.53125 105.753906 L 217.53125 93.984375 C 222.265625 89.921875 225.226562 84.164062 227 77.898438 C 227.167969 77.984375 227.339844 78.152344 227.59375 78.238281 C 240.023438 85.179688 242.984375 60.796875 236.726562 59.949219 Z M 236.726562 59.949219 "/>
<path style=" stroke:none;fill-rule:nonzero;fill:rgb(35.289001%,19.999695%,7.449341%);fill-opacity:1;" d="M 177.53125 32.601562 C 177.53125 32.601562 202.222656 55.292969 216.769531 58.085938 C 217.105469 58.171875 217.359375 58.171875 217.699219 58.253906 L 214.230469 47.332031 C 214.230469 47.332031 222.433594 58.679688 229.113281 61.640625 L 230.890625 43.777344 L 221.925781 29.46875 L 185.5625 25.910156 Z M 177.53125 32.601562 "/>
<path style=" stroke:none;fill-rule:nonzero;fill:rgb(16.859436%,50.19989%,49.01886%);fill-opacity:1;" d="M 225.140625 25.148438 C 225.140625 25.148438 228.355469 38.867188 233.34375 39.882812 C 238.332031 40.984375 230.976562 16.003906 225.140625 25.148438 Z M 225.140625 25.148438 "/>
<path style=" stroke:none;fill-rule:nonzero;fill:rgb(76.078796%,64.709473%,46.269226%);fill-opacity:1;" d="M 239.09375 138.773438 L 222.855469 147.582031 L 231.90625 166.207031 L 240.867188 160.789062 Z M 239.09375 138.773438 "/>
<path style=" stroke:none;fill-rule:nonzero;fill:rgb(82.348633%,47.839355%,30.589294%);fill-opacity:1;" d="M 242.222656 137.082031 L 232.835938 126.835938 C 232.835938 126.835938 229.453125 123.789062 225.476562 120.402344 C 211.523438 113.542969 199.007812 120.996094 194.695312 124.128906 C 188.691406 128.867188 181.167969 135.726562 181.167969 135.726562 C 181.167969 135.726562 184.464844 136.488281 187.59375 135.726562 C 190.722656 134.964844 196.726562 130.648438 196.726562 130.648438 C 196.726562 130.648438 194.695312 146.480469 197.320312 147.835938 C 200.023438 149.105469 199.6875 146.226562 199.6875 146.226562 C 199.6875 146.226562 200.109375 149.953125 202.476562 149.953125 C 204.929688 149.953125 205.4375 146.054688 205.4375 146.054688 C 205.4375 146.054688 206.957031 150.542969 208.3125 149.105469 C 209.664062 147.75 212.792969 134.371094 214.992188 133.949219 L 224.546875 146.480469 Z M 242.222656 137.082031 "/>
<path style=" stroke:none;fill-rule:nonzero;fill:rgb(35.289001%,19.999695%,7.449341%);fill-opacity:1;" d="M 235.203125 65.28125 C 233.597656 66.554688 232.074219 67.90625 230.46875 69.175781 C 230.214844 69.429688 230.214844 69.855469 230.46875 70.109375 C 231.652344 71.464844 232.921875 72.816406 234.105469 74.171875 C 234.695312 74.765625 235.542969 73.835938 235.035156 73.242188 C 233.851562 71.886719 232.582031 70.53125 231.398438 69.175781 C 231.398438 69.515625 231.398438 69.769531 231.398438 70.109375 C 233.003906 68.839844 234.527344 67.484375 236.132812 66.214844 C 236.808594 65.707031 235.878906 64.773438 235.203125 65.28125 Z M 235.203125 65.28125 "/>
<path style=" stroke:none;fill-rule:nonzero;fill:rgb(35.289001%,19.999695%,7.449341%);fill-opacity:1;" d="M 192.835938 100.167969 C 201.460938 102.027344 210.679688 99.402344 217.78125 94.578125 C 218.460938 94.15625 217.78125 92.96875 217.105469 93.476562 C 210.257812 98.050781 201.378906 100.675781 193.089844 98.894531 C 192.414062 98.726562 192.074219 99.996094 192.835938 100.167969 Z M 192.835938 100.167969 "/>
<path style=" stroke:none;fill-rule:nonzero;fill:rgb(35.289001%,19.999695%,7.449341%);fill-opacity:1;" d="M 241.882812 136.488281 C 235.371094 139.960938 228.945312 143.515625 222.433594 146.988281 C 222.097656 147.15625 222.097656 147.582031 222.179688 147.835938 C 225.984375 155.625 229.792969 163.414062 233.597656 171.203125 C 233.933594 171.964844 235.035156 171.289062 234.695312 170.527344 C 233.089844 167.222656 231.398438 163.835938 229.792969 160.535156 C 227.929688 156.808594 224.210938 151.898438 223.535156 147.75 C 223.363281 146.648438 223.28125 147.664062 223.109375 148.003906 C 223.28125 147.664062 224.632812 147.15625 224.886719 147.074219 C 227.167969 146.226562 229.453125 144.617188 231.566406 143.433594 C 235.203125 141.484375 238.753906 139.535156 242.390625 137.589844 C 243.320312 137.25 242.644531 136.148438 241.882812 136.488281 Z M 241.882812 136.488281 "/>
<path style=" stroke:none;fill-rule:nonzero;fill:rgb(35.289001%,19.999695%,7.449341%);fill-opacity:1;" d="M 242.558594 137.675781 C 245.097656 136.402344 243.574219 135.980469 244.929688 137.167969 C 246.28125 138.351562 247.378906 140.382812 248.394531 141.824219 C 252.539062 147.410156 256.765625 153 260.910156 158.585938 C 267.253906 167.140625 273.59375 175.605469 279.9375 184.15625 C 280.445312 184.835938 281.542969 184.15625 281.035156 183.480469 C 269.113281 167.476562 257.191406 151.476562 245.183594 135.472656 C 244.929688 135.21875 244.675781 135.050781 244.335938 135.21875 C 243.492188 135.640625 242.644531 136.066406 241.800781 136.488281 C 241.207031 136.914062 241.800781 138.011719 242.558594 137.675781 Z M 242.558594 137.675781 "/>
<path style=" stroke:none;fill-rule:nonzero;fill:rgb(35.289001%,19.999695%,7.449341%);fill-opacity:1;" d="M 215.414062 134.542969 C 217.445312 132.761719 220.066406 134.542969 221.503906 136.320312 C 222.011719 136.996094 222.941406 136.066406 222.433594 135.386719 C 220.488281 133.015625 217.191406 131.324219 214.570312 133.609375 C 213.894531 134.117188 214.824219 135.050781 215.414062 134.542969 Z M 215.414062 134.542969 "/>
<path style=" stroke:none;fill-rule:nonzero;fill:rgb(35.289001%,19.999695%,7.449341%);fill-opacity:1;" d="M 200.277344 147.496094 C 200.195312 142.839844 200.699219 137.757812 202.5625 133.441406 C 202.898438 132.679688 201.800781 132 201.460938 132.761719 C 199.433594 137.335938 198.925781 142.585938 199.007812 147.496094 C 199.007812 148.34375 200.277344 148.34375 200.277344 147.496094 Z M 200.277344 147.496094 "/>
<path style=" stroke:none;fill-rule:nonzero;fill:rgb(35.289001%,19.999695%,7.449341%);fill-opacity:1;" d="M 183.449219 137.84375 C 188.183594 136.320312 193.003906 134.289062 196.980469 131.324219 C 197.65625 130.816406 196.980469 129.714844 196.304688 130.222656 C 192.414062 133.101562 187.679688 135.132812 183.113281 136.660156 C 182.351562 136.828125 182.6875 138.097656 183.449219 137.84375 Z M 183.449219 137.84375 "/>
<path style=" stroke:none;fill-rule:nonzero;fill:rgb(35.289001%,19.999695%,7.449341%);fill-opacity:1;" d="M 205.945312 148.679688 C 205.859375 144.023438 206.367188 139.027344 208.226562 134.710938 C 208.566406 133.949219 207.464844 133.273438 207.128906 134.035156 C 205.183594 138.519531 204.589844 143.769531 204.675781 148.679688 C 204.675781 149.527344 205.945312 149.527344 205.945312 148.679688 Z M 205.945312 148.679688 "/>
<path style=" stroke:none;fill-rule:nonzero;fill:rgb(35.289001%,19.999695%,7.449341%);fill-opacity:1;" d="M 132.710938 137.503906 C 123.664062 133.695312 114.699219 129.96875 105.652344 126.160156 C 104.890625 125.820312 104.550781 127.089844 105.3125 127.429688 C 114.359375 131.238281 123.324219 134.964844 132.375 138.773438 C 133.132812 139.113281 133.472656 137.84375 132.710938 137.503906 Z M 132.710938 137.503906 "/>
<path style=" stroke:none;fill-rule:nonzero;fill:rgb(35.289001%,19.999695%,7.449341%);fill-opacity:1;" d="M 193.003906 63.335938 C 192.074219 66.46875 191.230469 70.109375 191.738281 73.328125 C 192.160156 76.121094 196.132812 78.40625 198.417969 75.949219 C 199.007812 75.359375 198.078125 74.425781 197.488281 75.019531 C 196.304688 76.203125 193.683594 75.105469 193.175781 73.835938 C 192.667969 72.5625 192.921875 70.871094 193.003906 69.601562 C 193.257812 67.570312 193.683594 65.535156 194.191406 63.589844 C 194.527344 62.828125 193.257812 62.488281 193.003906 63.335938 Z M 193.003906 63.335938 "/>
<path style=" stroke:none;fill-rule:nonzero;fill:rgb(35.289001%,19.999695%,7.449341%);fill-opacity:1;" d="M 187.085938 64.351562 C 187.085938 64.8125 187.011719 65.253906 186.867188 65.679688 C 186.722656 66.105469 186.511719 66.480469 186.242188 66.804688 C 185.972656 67.132812 185.664062 67.382812 185.3125 67.558594 C 184.960938 67.734375 184.59375 67.824219 184.210938 67.824219 C 183.828125 67.824219 183.464844 67.734375 183.109375 67.558594 C 182.757812 67.382812 182.449219 67.132812 182.179688 66.804688 C 181.910156 66.480469 181.699219 66.105469 181.554688 65.679688 C 181.410156 65.253906 181.335938 64.8125 181.335938 64.351562 C 181.335938 63.890625 181.410156 63.449219 181.554688 63.023438 C 181.699219 62.597656 181.910156 62.222656 182.179688 61.898438 C 182.449219 61.570312 182.757812 61.320312 183.109375 61.144531 C 183.464844 60.96875 183.828125 60.878906 184.210938 60.878906 C 184.59375 60.878906 184.960938 60.96875 185.3125 61.144531 C 185.664062 61.320312 185.972656 61.570312 186.242188 61.898438 C 186.511719 62.222656 186.722656 62.597656 186.867188 63.023438 C 187.011719 63.449219 187.085938 63.890625 187.085938 64.351562 Z M 187.085938 64.351562 "/>
<path style=" stroke:none;fill-rule:nonzero;fill:rgb(35.289001%,19.999695%,7.449341%);fill-opacity:1;" d="M 209.582031 64.351562 C 209.582031 64.8125 209.507812 65.253906 209.363281 65.679688 C 209.214844 66.105469 209.007812 66.480469 208.738281 66.804688 C 208.46875 67.132812 208.15625 67.382812 207.804688 67.558594 C 207.453125 67.734375 207.085938 67.824219 206.707031 67.824219 C 206.324219 67.824219 205.957031 67.734375 205.605469 67.558594 C 205.253906 67.382812 204.941406 67.132812 204.671875 66.804688 C 204.402344 66.480469 204.195312 66.105469 204.046875 65.679688 C 203.902344 65.253906 203.828125 64.8125 203.828125 64.351562 C 203.828125 63.890625 203.902344 63.449219 204.046875 63.023438 C 204.195312 62.597656 204.402344 62.222656 204.671875 61.898438 C 204.941406 61.570312 205.253906 61.320312 205.605469 61.144531 C 205.957031 60.96875 206.324219 60.878906 206.707031 60.878906 C 207.085938 60.878906 207.453125 60.96875 207.804688 61.144531 C 208.15625 61.320312 208.46875 61.570312 208.738281 61.898438 C 209.007812 62.222656 209.214844 62.597656 209.363281 63.023438 C 209.507812 63.449219 209.582031 63.890625 209.582031 64.351562 Z M 209.582031 64.351562 "/>
<path style=" stroke:none;fill-rule:nonzero;fill:rgb(35.289001%,19.999695%,7.449341%);fill-opacity:1;" d="M 205.015625 55.714844 C 207.804688 54.699219 210.765625 55.96875 212.710938 58 C 213.300781 58.59375 214.230469 57.664062 213.640625 57.070312 C 211.355469 54.699219 207.890625 53.34375 204.675781 54.445312 C 203.914062 54.785156 204.253906 56.054688 205.015625 55.714844 Z M 205.015625 55.714844 "/>
<path style=" stroke:none;fill-rule:nonzero;fill:rgb(35.289001%,19.999695%,7.449341%);fill-opacity:1;" d="M 188.609375 54.53125 C 185.394531 53.34375 181.84375 54.785156 179.644531 57.15625 C 179.050781 57.746094 179.984375 58.679688 180.574219 58.085938 C 182.519531 56.054688 185.480469 54.785156 188.269531 55.800781 C 189.03125 56.054688 189.371094 54.785156 188.609375 54.53125 Z M 188.609375 54.53125 "/>
<path style=" stroke:none;fill-rule:nonzero;fill:rgb(35.289001%,19.999695%,7.449341%);fill-opacity:1;" d="M 196.472656 81.625 C 199.855469 82.386719 203.40625 80.609375 205.691406 78.238281 C 206.28125 77.644531 205.351562 76.714844 204.761719 77.304688 C 202.730469 79.335938 199.6875 81.03125 196.726562 80.355469 C 195.964844 80.183594 195.628906 81.453125 196.472656 81.625 Z M 196.472656 81.625 "/>
<path style=" stroke:none;fill-rule:nonzero;fill:rgb(35.289001%,19.999695%,7.449341%);fill-opacity:1;" d="M 251.1875 277.460938 C 269.960938 272.636719 288.648438 267.726562 307.421875 262.898438 C 308.183594 262.730469 307.84375 261.460938 307.082031 261.628906 C 288.308594 266.453125 269.621094 271.367188 250.847656 276.191406 C 250.003906 276.359375 250.339844 277.632812 251.1875 277.460938 Z M 251.1875 277.460938 "/>
<path style=" stroke:none;fill-rule:nonzero;fill:rgb(35.289001%,19.999695%,7.449341%);fill-opacity:1;" d="M 293.300781 266.453125 C 298.371094 267.554688 302.855469 271.789062 305.8125 275.851562 C 315.707031 289.738281 314.101562 309.128906 311.3125 324.960938 C 311.140625 325.808594 312.410156 326.144531 312.578125 325.300781 C 315.453125 309.128906 317.0625 289.398438 307 275.175781 C 303.871094 270.859375 299.132812 266.371094 293.722656 265.183594 C 292.792969 265.015625 292.453125 266.199219 293.300781 266.453125 Z M 293.300781 266.453125 "/>
<path style=" stroke:none;fill-rule:nonzero;fill:rgb(35.289001%,19.999695%,7.449341%);fill-opacity:1;" d="M 228.015625 204.902344 C 217.277344 200.246094 206.535156 195.585938 195.796875 190.929688 C 195.035156 190.59375 194.359375 191.691406 195.121094 192.03125 C 205.859375 196.6875 216.597656 201.34375 227.339844 206 C 228.101562 206.339844 228.777344 205.238281 228.015625 204.902344 Z M 228.015625 204.902344 "/>
<path style=" stroke:none;fill-rule:nonzero;fill:rgb(35.289001%,19.999695%,7.449341%);fill-opacity:1;" d="M 233.765625 211.082031 C 228.183594 215.316406 222.519531 219.546875 216.9375 223.78125 C 216.261719 224.289062 216.9375 225.390625 217.613281 224.882812 C 223.195312 220.648438 228.859375 216.414062 234.441406 212.183594 C 235.117188 211.675781 234.441406 210.574219 233.765625 211.082031 Z M 233.765625 211.082031 "/>
<path style=" stroke:none;fill-rule:nonzero;fill:rgb(35.289001%,19.999695%,7.449341%);fill-opacity:1;" d="M 230.976562 208.371094 C 224.546875 208.878906 218.121094 209.472656 211.695312 209.980469 C 210.847656 210.066406 210.847656 211.335938 211.695312 211.25 C 218.121094 210.742188 224.546875 210.152344 230.976562 209.640625 C 231.734375 209.558594 231.734375 208.289062 230.976562 208.371094 Z M 230.976562 208.371094 "/>
<path style=" stroke:none;fill-rule:nonzero;fill:rgb(35.289001%,19.999695%,7.449341%);fill-opacity:1;" d="M 144.886719 162.144531 C 155.460938 174.167969 164.507812 148.933594 167.382812 141.738281 C 167.722656 140.976562 166.453125 140.636719 166.113281 141.398438 C 164.421875 145.71875 162.394531 149.867188 160.28125 154.015625 C 158.671875 157.0625 156.644531 161.464844 153.597656 163.160156 C 150.722656 164.769531 147.847656 163.582031 145.820312 161.210938 C 145.226562 160.621094 144.296875 161.550781 144.886719 162.144531 Z M 144.886719 162.144531 "/>
<path style=" stroke:none;fill-rule:nonzero;fill:rgb(35.289001%,19.999695%,7.449341%);fill-opacity:1;" d="M 217.78125 169.425781 C 215.753906 176.539062 216.683594 185.597656 224.464844 188.558594 C 225.226562 188.898438 225.5625 187.628906 224.800781 187.289062 C 217.78125 184.582031 217.277344 176.113281 219.050781 169.761719 C 219.304688 169 218.035156 168.664062 217.78125 169.425781 Z M 217.78125 169.425781 "/>
<path style=" stroke:none;fill-rule:nonzero;fill:rgb(35.289001%,19.999695%,7.449341%);fill-opacity:1;" d="M 154.953125 156.46875 C 154.953125 156.910156 154.867188 157.328125 154.699219 157.734375 C 154.535156 158.140625 154.296875 158.496094 153.984375 158.804688 C 153.675781 159.113281 153.320312 159.355469 152.914062 159.519531 C 152.511719 159.6875 152.089844 159.773438 151.652344 159.773438 C 151.214844 159.773438 150.796875 159.6875 150.390625 159.519531 C 149.988281 159.355469 149.632812 159.113281 149.320312 158.804688 C 149.011719 158.496094 148.773438 158.140625 148.605469 157.734375 C 148.4375 157.328125 148.355469 156.910156 148.355469 156.46875 C 148.355469 156.03125 148.4375 155.613281 148.605469 155.207031 C 148.773438 154.800781 149.011719 154.445312 149.320312 154.136719 C 149.632812 153.824219 149.988281 153.585938 150.390625 153.421875 C 150.796875 153.253906 151.214844 153.167969 151.652344 153.167969 C 152.089844 153.167969 152.511719 153.253906 152.914062 153.421875 C 153.320312 153.585938 153.675781 153.824219 153.984375 154.136719 C 154.296875 154.445312 154.535156 154.800781 154.699219 155.207031 C 154.867188 155.613281 154.953125 156.03125 154.953125 156.46875 Z M 154.953125 156.46875 "/>
<path style=" stroke:none;fill-rule:nonzero;fill:rgb(35.289001%,19.999695%,7.449341%);fill-opacity:1;" d="M 227.929688 178.738281 C 227.929688 179.175781 227.847656 179.597656 227.679688 180.003906 C 227.511719 180.40625 227.273438 180.765625 226.964844 181.074219 C 226.65625 181.382812 226.296875 181.621094 225.894531 181.789062 C 225.492188 181.957031 225.070312 182.039062 224.632812 182.039062 C 224.195312 182.039062 223.773438 181.957031 223.371094 181.789062 C 222.964844 181.621094 222.609375 181.382812 222.300781 181.074219 C 221.992188 180.765625 221.753906 180.40625 221.585938 180.003906 C 221.417969 179.597656 221.335938 179.175781 221.335938 178.738281 C 221.335938 178.300781 221.417969 177.878906 221.585938 177.476562 C 221.753906 177.070312 221.992188 176.714844 222.300781 176.402344 C 222.609375 176.09375 222.964844 175.855469 223.371094 175.6875 C 223.773438 175.519531 224.195312 175.4375 224.632812 175.4375 C 225.070312 175.4375 225.492188 175.519531 225.894531 175.6875 C 226.296875 175.855469 226.65625 176.09375 226.964844 176.402344 C 227.273438 176.714844 227.511719 177.070312 227.679688 177.476562 C 227.847656 177.878906 227.929688 178.300781 227.929688 178.738281 Z M 227.929688 178.738281 "/>
<path style=" stroke:none;fill-rule:nonzero;fill:rgb(35.289001%,19.999695%,7.449341%);fill-opacity:1;" d="M 44.339844 167.140625 C 44.089844 161.636719 45.101562 155.285156 48.65625 150.96875 C 49.160156 150.375 48.230469 149.441406 47.722656 150.035156 C 43.917969 154.609375 42.734375 161.210938 43.074219 167.140625 C 43.074219 167.902344 44.425781 167.902344 44.339844 167.140625 Z M 44.339844 167.140625 "/>
<path style=" stroke:none;fill-rule:nonzero;fill:rgb(35.289001%,19.999695%,7.449341%);fill-opacity:1;" d="M 50.429688 167.984375 C 50.175781 162.480469 51.191406 156.132812 54.742188 151.8125 C 55.25 151.222656 54.320312 150.289062 53.8125 150.882812 C 50.007812 155.539062 48.824219 162.144531 49.078125 167.984375 C 49.246094 168.746094 50.515625 168.746094 50.429688 167.984375 Z M 50.429688 167.984375 "/>
<path style=" stroke:none;fill-rule:nonzero;fill:rgb(35.289001%,19.999695%,7.449341%);fill-opacity:1;" d="M 307.253906 389.902344 C 303.871094 389.902344 300.570312 389.902344 297.1875 389.902344 C 296.34375 389.902344 296.34375 391.171875 297.1875 391.171875 C 300.570312 391.171875 303.871094 391.171875 307.253906 391.171875 C 308.097656 391.171875 308.097656 389.902344 307.253906 389.902344 Z M 307.253906 389.902344 "/>
<path style=" stroke:none;fill-rule:nonzero;fill:rgb(35.289001%,19.999695%,7.449341%);fill-opacity:1;" d="M 310.296875 395.828125 C 305.898438 395.828125 301.585938 395.828125 297.1875 395.828125 C 296.34375 395.828125 296.34375 397.097656 297.1875 397.097656 C 301.585938 397.097656 305.898438 397.097656 310.296875 397.097656 C 311.058594 397.097656 311.058594 395.828125 310.296875 395.828125 Z M 310.296875 395.828125 "/>
<path style=" stroke:none;fill-rule:nonzero;fill:rgb(35.289001%,19.999695%,7.449341%);fill-opacity:1;" d="M 313.171875 400.484375 C 307.84375 400.484375 302.515625 400.484375 297.1875 400.484375 C 296.34375 400.484375 296.34375 401.753906 297.1875 401.753906 C 302.515625 401.753906 307.84375 401.753906 313.171875 401.753906 C 314.015625 401.753906 314.015625 400.484375 313.171875 400.484375 Z M 313.171875 400.484375 "/>
<path style=" stroke:none;fill-rule:nonzero;fill:rgb(35.289001%,19.999695%,7.449341%);fill-opacity:1;" d="M 359.257812 350.191406 C 356.300781 351.714844 353.253906 353.242188 350.296875 354.765625 C 349.535156 355.101562 350.210938 356.289062 350.972656 355.863281 C 353.929688 354.339844 356.976562 352.816406 359.933594 351.292969 C 360.613281 350.953125 360.019531 349.851562 359.257812 350.191406 Z M 359.257812 350.191406 "/>
<path style=" stroke:none;fill-rule:nonzero;fill:rgb(35.289001%,19.999695%,7.449341%);fill-opacity:1;" d="M 364.671875 354.085938 C 360.78125 356.035156 356.890625 358.066406 353 360.015625 C 352.238281 360.351562 352.917969 361.539062 353.675781 361.113281 C 357.566406 359.167969 361.457031 357.136719 365.347656 355.1875 C 366.023438 354.847656 365.347656 353.75 364.671875 354.085938 Z M 364.671875 354.085938 "/>
<path style=" stroke:none;fill-rule:nonzero;fill:rgb(35.289001%,19.999695%,7.449341%);fill-opacity:1;" d="M 369.320312 356.882812 C 364.585938 359.335938 359.851562 361.707031 355.117188 364.164062 C 354.355469 364.5 355.03125 365.6875 355.792969 365.261719 C 360.527344 362.808594 365.261719 360.4375 370 357.980469 C 370.757812 357.644531 370.082031 356.542969 369.320312 356.882812 Z M 369.320312 356.882812 "/>
</g>
</svg>
