<?xml version="1.0" encoding="UTF-8"?>
<svg xmlns="http://www.w3.org/2000/svg" xmlns:xlink="http://www.w3.org/1999/xlink" width="450pt" height="449.999984pt" viewBox="0 0 450 449.999984" version="1.2">
<g id="surface1">
<rect x="0" y="0" width="450" height="449.999984" style="fill:rgb(100%,100%,100%);fill-opacity:1;stroke:none;"/>
<rect x="0" y="0" width="450" height="449.999984" style="fill:rgb(100%,100%,100%);fill-opacity:1;stroke:none;"/>
<rect x="0" y="0" width="450" height="449.999984" style="fill:rgb(100%,100%,100%);fill-opacity:1;stroke:none;"/>
<path style=" stroke:none;fill-rule:nonzero;fill:rgb(92.939758%,92.158508%,84.309387%);fill-opacity:1;" d="M 434.1875 226.699219 C 434.1875 204.289062 445.359375 180.503906 438.484375 160.324219 C 431.4375 139.371094 407.546875 126.488281 394.398438 109.058594 C 381.078125 91.453125 375.578125 65.777344 357.273438 52.984375 C 339.140625 40.359375 312.070312 43.195312 290.328125 36.324219 C 269.273438 29.796875 249.246094 11.9375 225.957031 11.9375 C 202.667969 11.9375 182.558594 29.710938 161.589844 36.324219 C 139.847656 43.109375 112.691406 40.273438 94.558594 52.984375 C 76.253906 65.777344 70.753906 91.453125 57.433594 109.058594 C 44.199219 126.488281 20.394531 139.371094 13.261719 160.324219 C 6.472656 180.503906 17.558594 204.289062 17.558594 226.699219 C 17.558594 249.113281 6.386719 272.898438 13.261719 293.078125 C 20.308594 314.03125 44.199219 326.914062 57.347656 344.34375 C 70.667969 361.949219 76.167969 387.625 94.472656 400.417969 C 112.605469 413.128906 139.675781 410.292969 161.503906 417.078125 C 182.558594 423.605469 202.582031 441.464844 225.871094 441.464844 C 249.160156 441.464844 269.273438 423.691406 290.242188 417.078125 C 311.984375 410.292969 339.140625 413.128906 357.273438 400.417969 C 375.578125 387.625 381.078125 361.949219 394.398438 344.34375 C 407.632812 326.914062 431.4375 314.03125 438.484375 293.078125 C 445.359375 272.8125 434.1875 249.027344 434.1875 226.699219 Z M 434.1875 226.699219 "/>
</g>
</svg>
